<svg width="154" height="32" viewBox="0 0 154 32" fill="none" xmlns="http://www.w3.org/2000/svg">
<path d="M81.2381 8.06042L73.509 24.6805H88.9625L81.2381 8.06042ZM81.2381 16.9272L83.3456 21.465H79.126L81.2381 16.9272Z" fill="#4C4C4C"/>
<path d="M103.374 10.7191C101.953 9.31317 99.9981 8.59399 97.4894 8.59399H91.2268V24.6805H97.4894C99.9981 24.6805 101.953 23.9659 103.374 22.5368C104.771 21.131 105.481 19.1636 105.481 16.6395C105.481 14.1155 104.771 12.1481 103.374 10.7191ZM100.266 20.0127C99.6199 20.7922 98.6884 21.1959 97.4894 21.1959H95.4925V12.0785H97.4894C98.6884 12.0785 99.6199 12.4822 100.266 13.2617C100.911 14.0459 101.22 15.1826 101.22 16.6349C101.22 18.0918 100.907 19.2286 100.266 20.0127Z" fill="#4C4C4C"/>
<path d="M118.74 10.7655C117.116 9.13223 115.184 8.32953 112.901 8.32953C111.592 8.32953 110.347 8.62184 109.217 9.20183C108.082 9.78181 107.132 10.5892 106.353 11.5914L109.415 13.9577C110.282 12.7977 111.458 12.2177 112.901 12.2177C113.856 12.2177 114.7 12.4869 115.479 13.0436C116.236 13.6004 116.766 14.2964 117.056 15.1641H112.371V18.115H117.056C116.766 18.9873 116.236 19.6787 115.479 20.2401C114.7 20.7969 113.856 21.066 112.901 21.066C111.458 21.066 110.282 20.4814 109.415 19.3446L106.353 21.6924C107.128 22.6946 108.082 23.5019 109.217 24.0819C110.351 24.6665 111.592 24.9542 112.901 24.9542C115.189 24.9542 117.121 24.1515 118.74 22.5183C120.363 20.885 121.161 18.9409 121.161 16.6442C121.161 14.3382 120.363 12.3941 118.74 10.7655Z" fill="#4C4C4C"/>
<path d="M137.813 8.59399H133.04L128.954 14.895H127.691V8.59399H123.425V24.6805H127.691V18.3795H128.954L133.04 24.6805H137.813L132.593 16.6395L137.813 8.59399Z" fill="#4C4C4C"/>
<path d="M147.447 21.0614C146.225 21.0614 145.206 20.6345 144.339 19.7622C143.476 18.8899 143.052 17.8645 143.052 16.6349C143.052 15.4053 143.476 14.3799 144.339 13.5076C145.206 12.6353 146.225 12.2131 147.447 12.2131C148.89 12.2131 150.066 12.7931 150.933 13.9531L154 11.5867C153.225 10.5799 152.271 9.77717 151.136 9.19719C150.002 8.6172 148.761 8.32489 147.452 8.32489C145.164 8.32489 143.232 9.12759 141.613 10.7608C139.99 12.3894 139.192 14.3335 139.192 16.6349C139.192 18.9363 139.99 20.8804 141.613 22.509C143.237 24.1376 145.169 24.9449 147.452 24.9449C148.761 24.9449 150.006 24.6573 151.136 24.0726C152.271 23.4927 153.221 22.6853 154 21.6831L150.933 19.3353C150.071 20.4814 148.89 21.0614 147.447 21.0614Z" fill="#4C4C4C"/>
<path d="M44.9585 24.4253L41.9287 24.0541L44.8801 24.5691L44.9585 24.4253Z" fill="white"/>
<path d="M2.2597 8.91882L2.67936 9.35033H2.0614V8.91882H2.2597Z" fill="#0039A2"/>
<path d="M2.458 12.3987H2.0614V11.9811L2.458 12.3987Z" fill="#0039A2"/>
<path d="M2.42603 15.011C2.43079 15.0205 2.43079 15.0252 2.43555 15.03L2.4165 15.011H2.42603Z" fill="#0039A2"/>
<path d="M2.83156 15.4425H2.67477C2.59176 15.3079 2.51797 15.1734 2.43958 15.0342L2.83156 15.4425Z" fill="#0039A2"/>
<path d="M3.79531 16.4586L3.37565 16.4308C3.2742 16.2916 3.20503 16.1709 3.11279 16.0271H3.38488L3.79531 16.4586Z" fill="#0039A2"/>
<path d="M26.3277 23.1354C25.968 23.2885 25.6036 23.437 25.2301 23.5669H24.5568C24.4138 23.4231 24.2709 23.2792 24.1279 23.1354H26.3277Z" fill="#0039A2"/>
<path d="M4.52393 24.7315H16.385L7.74744 27.5665C6.58993 26.7638 5.5062 25.8219 4.52393 24.7315Z" fill="#4C4C4C"/>
<path d="M32.7839 24.6944C30.2798 24.6944 27.7803 24.6851 25.2762 24.7037C24.8473 24.7083 24.5337 24.597 24.2248 24.2815C24.1233 24.1794 24.0265 24.0819 23.925 23.9799C23.7867 23.8407 23.6483 23.7015 23.51 23.5623C23.367 23.4184 23.2241 23.2746 23.0811 23.1308C22.8874 22.9359 22.6937 22.741 22.5 22.5461C22.3571 22.4023 22.2141 22.2585 22.0712 22.1146C21.8775 21.9198 21.6838 21.7249 21.4901 21.53C21.3517 21.3862 21.2042 21.2423 21.0612 21.0985C20.8721 20.9036 20.6784 20.7087 20.4848 20.5139C20.3464 20.37 20.1988 20.2262 20.0559 20.0824C19.8668 19.8875 19.6731 19.6926 19.4748 19.4977C19.3365 19.3539 19.1935 19.2101 19.0459 19.0662C18.8569 18.8714 18.6632 18.6765 18.4695 18.4816C18.3311 18.3378 18.1836 18.1939 18.0406 18.0501C18.036 18.0455 18.0314 18.0408 18.0268 18.0362C17.8377 17.8459 17.6532 17.6557 17.4595 17.4655C17.3212 17.3216 17.1782 17.1778 17.0307 17.034C16.8416 16.8391 16.6479 16.6442 16.4496 16.4493C16.3066 16.3055 16.1637 16.1617 16.0207 16.0178C15.8316 15.823 15.638 15.6281 15.4397 15.4332C15.3013 15.2894 15.1537 15.1455 15.0108 15.0017C14.8217 14.8068 14.628 14.6119 14.4297 14.4171C14.2914 14.2732 14.1438 14.1294 14.0008 13.9856C13.8072 13.7907 13.6135 13.5958 13.4198 13.4009C13.2768 13.2571 13.1339 13.1133 12.9909 12.9694C12.7972 12.7745 12.6081 12.5797 12.4098 12.3848C12.2669 12.241 12.1239 12.0971 11.981 11.9533C11.7873 11.7584 11.5982 11.5635 11.4045 11.3687C11.2615 11.2248 11.1186 11.081 10.9756 10.9372L10.3946 10.3525C10.2516 10.2087 10.1086 10.0649 9.96568 9.92102C9.772 9.72615 9.58292 9.53127 9.38462 9.3364C9.24166 9.19256 9.0987 9.04872 8.95574 8.90489C8.76205 8.71001 8.56837 8.51514 8.37468 8.32026C8.23172 8.17643 8.08876 8.03259 7.9458 7.88875L7.37857 7.31805C7.23561 7.17421 7.09265 7.03038 6.94969 6.88654C6.756 6.69166 6.56693 6.49679 6.37324 6.30191C6.28101 6.21376 6.19339 6.12096 6.10577 6.0328C6.05043 5.97712 5.9997 5.92608 5.94436 5.8704C4.72229 4.64083 3.50482 3.41591 2.28736 2.19098C1.78469 1.68987 1.28664 1.13308 0.756304 0.557739C0.608732 0.993888 0.502665 1.46716 0.405821 1.95898C0.378152 2.09354 0.350482 2.23274 0.322812 2.36729C0.308978 2.43689 0.295143 2.50649 0.28592 2.57609C0.272085 2.63641 0.25825 2.69673 0.253638 2.76168V2.76632H0.25825L2.71624 5.86576L2.72085 5.8704C2.78541 5.95856 2.79463 6.06528 2.73468 6.11168L2.5041 5.8704L0.161406 3.42983L0.156795 3.42519C0.0553393 4.15829 0.00461161 4.92851 0 5.71729C0 5.75441 0 5.79617 0.00461161 5.83329C0.00461161 5.79617 0.00461161 5.75905 0.00922321 5.71729C0.0368929 5.73121 0.0645625 5.75441 0.0830089 5.77761L2.06139 8.26922L2.1075 8.3249L2.56867 8.90953L2.90992 9.34104L2.96065 9.406C3.02521 9.48951 3.02983 9.59623 2.96987 9.64263L2.67934 9.34104L2.25969 8.91881L0.0184464 6.60351C0.0184464 6.64527 0.023058 6.68238 0.023058 6.7195C0.0322812 6.87726 0.0415045 7.03502 0.0507277 7.19277C0.0645625 7.35053 0.0783973 7.50828 0.0922321 7.67068C0.106067 7.80988 0.119902 7.94907 0.138348 8.08827C0.147571 8.13931 0.152183 8.19035 0.161406 8.24138C0.207522 8.60329 0.267473 8.96521 0.336647 9.32712C0.336647 9.33176 0.341259 9.33176 0.341259 9.33176L2.43032 11.9579L2.76696 12.3987L3.20507 12.9509C3.21429 12.9601 3.2189 12.9694 3.22351 12.9787C3.27424 13.0622 3.27424 13.155 3.2189 13.2014L3.00677 12.9787L2.45337 12.3941L2.05678 11.9765L0.581062 10.4314L0.576451 10.4268C0.834701 11.4475 1.18057 12.459 1.63251 13.4473C1.63712 13.452 1.63712 13.4566 1.63712 13.4566C1.65096 13.4891 1.66479 13.5169 1.67862 13.5448L1.68324 13.5494L2.06139 14.0273L2.37959 14.431L2.84075 15.0156L3.18662 15.4471L3.64778 16.0317L3.85992 16.3009C3.90142 16.3519 3.91987 16.4169 3.91525 16.4679C3.91064 16.505 3.89681 16.5329 3.87375 16.5514L3.79074 16.4679L3.38031 16.0364L2.82692 15.4518L2.43493 15.0435C2.50871 15.1826 2.58711 15.3172 2.67012 15.4518C2.7808 15.6513 2.9007 15.8415 3.02521 16.0364C3.11745 16.1802 3.20968 16.3287 3.30652 16.4679C3.43565 16.6674 3.56938 16.8623 3.71234 17.0525C3.75846 17.1175 3.80458 17.1824 3.85069 17.2428C3.91064 17.3263 3.97059 17.4051 4.03516 17.484C4.03054 17.4887 4.03516 17.4887 4.03977 17.4887C4.18734 17.6835 4.33952 17.8784 4.49632 18.0687C4.61622 18.2125 4.74073 18.361 4.86525 18.5002C5.04049 18.6997 5.21573 18.8946 5.40019 19.0848C5.53854 19.2333 5.6815 19.3771 5.82907 19.5163C6.03659 19.7158 6.24412 19.9107 6.45625 20.1009C6.62227 20.2494 6.7929 20.3979 6.96353 20.5324C7.20794 20.7366 7.45697 20.9268 7.71061 21.1171C7.91352 21.2655 8.11643 21.414 8.32395 21.5486C8.6237 21.7574 8.93268 21.9476 9.24627 22.1332C9.4953 22.2863 9.74894 22.4255 10.0072 22.5647C10.3946 22.7689 10.7958 22.9637 11.2016 23.1493C11.5429 23.3024 11.8887 23.4463 12.2438 23.5808C13.5443 24.0819 14.9232 24.4624 16.3897 24.7408L9.97952 28.9028C17.8008 32.856 27.8818 31.1438 33.4434 24.7083H32.7839V24.6944Z" fill="#4C4C4C"/>
<path d="M37.7138 5.53171L37.7783 5.46211V5.45747C37.7691 4.81716 37.7276 4.17222 37.6538 3.52728L37.5846 3.5876V3.59223L35.039 5.95858C35.0114 5.93538 34.9929 5.90754 34.9883 5.87506C34.9837 5.82866 35.0021 5.77762 35.039 5.73586L37.497 2.94265L37.5616 2.86841C37.4417 2.12603 37.2803 1.37437 37.0681 0.622711L37.0036 0.687669C35.7953 1.90796 34.6609 3.05401 33.5218 4.20006C32.9823 4.74293 32.4242 5.30435 31.8478 5.8797C31.7832 5.94465 31.7187 6.00961 31.6495 6.07921C31.5711 6.15345 31.4927 6.23233 31.4143 6.31121C31.2206 6.50144 31.0269 6.69632 30.8286 6.89583C30.6857 7.03967 30.5427 7.18351 30.3951 7.32734C30.2015 7.52222 30.0032 7.71709 29.8049 7.91197C29.6619 8.0558 29.5189 8.19964 29.3714 8.34347C29.1731 8.53835 28.9794 8.72858 28.7811 8.9281C28.6381 9.07194 28.4905 9.21577 28.343 9.35961C28.1447 9.55448 27.951 9.74936 27.7527 9.94423C27.6097 10.0881 27.4622 10.2319 27.3192 10.3757C27.1209 10.5706 26.9272 10.7655 26.7289 10.9604C26.586 11.1042 26.4384 11.248 26.2908 11.3919C26.0925 11.5868 25.8988 11.7816 25.7005 11.9765C25.5576 12.1203 25.41 12.2642 25.2624 12.408C25.0641 12.6029 24.8704 12.7978 24.6721 12.9926C24.5292 13.1365 24.3816 13.2803 24.2386 13.4241C24.0403 13.619 23.8467 13.8139 23.653 14.0088C23.5054 14.1526 23.3624 14.2964 23.2149 14.4403C23.0166 14.6352 22.8229 14.83 22.6292 15.0249C22.4816 15.1687 22.3387 15.3126 22.1957 15.4564C21.9974 15.6513 21.8037 15.8462 21.61 16.041C21.4625 16.1849 21.3195 16.3287 21.1765 16.4725C20.9782 16.6721 20.7845 16.8669 20.5909 17.0572L19.7377 17.9156C19.687 17.9666 19.627 18.0176 19.5763 18.064C19.5717 18.0687 19.5671 18.0733 19.5671 18.0733C19.4426 18.1893 19.3642 18.3099 19.5025 18.5048C19.5302 18.5466 19.5671 18.5883 19.6178 18.6347C19.77 18.7832 19.9222 18.9363 20.0744 19.0894C20.2219 19.2333 20.3649 19.3771 20.5125 19.5209C20.7108 19.7158 20.9045 19.9061 21.0981 20.1056C21.2411 20.2494 21.3887 20.3932 21.5316 20.5371C21.7253 20.732 21.919 20.9268 22.1127 21.1217L22.5416 21.5532C22.7353 21.7481 22.9243 21.943 23.1226 22.1378C23.2656 22.2817 23.4086 22.4255 23.5515 22.5694C23.7452 22.7642 23.9343 22.9591 24.128 23.154C24.2709 23.2978 24.4139 23.4417 24.5568 23.5855C24.6122 23.6412 24.6675 23.7015 24.7275 23.7572C24.8151 23.8453 24.8981 23.9335 24.9857 24.017C25.1979 24.2304 25.3547 24.2675 25.6313 24.133C25.9449 23.9799 26.2862 23.7943 26.6367 23.5855C26.8626 23.4509 27.0932 23.3071 27.333 23.154C27.6143 22.9684 27.9003 22.7735 28.1908 22.5694C28.3891 22.4302 28.5874 22.2863 28.7857 22.1378C29.0439 21.9476 29.3022 21.7527 29.5558 21.5532C29.7403 21.4094 29.9201 21.2655 30.0954 21.1217C30.3352 20.9268 30.5658 20.732 30.7917 20.5371C30.9624 20.3932 31.1284 20.2448 31.2852 20.1056C31.5065 19.9061 31.7187 19.7112 31.9124 19.5209C32.0645 19.3725 32.2121 19.2286 32.3505 19.0894C32.4012 19.0384 32.4473 18.9874 32.4934 18.941C32.6272 18.7971 32.7609 18.6533 32.89 18.5095C33.0191 18.3656 33.1437 18.2218 33.2682 18.0779C33.4342 17.8877 33.591 17.6928 33.7432 17.4933C33.8538 17.3495 33.9645 17.2057 34.0752 17.0618C34.2182 16.8669 34.3565 16.6721 34.4949 16.4772C34.5917 16.3334 34.6885 16.1895 34.7808 16.0457C36.0905 14.0134 36.9759 11.7863 37.4325 9.35497L37.3817 9.40137L34.7485 11.8234C34.6839 11.777 34.6885 11.6795 34.7623 11.596L34.9376 11.4012L34.9837 11.3501L37.5247 8.52907V8.52443L37.5754 8.46875V8.46411C37.6123 8.21356 37.64 7.96765 37.6676 7.71709C37.7184 7.2299 37.7553 6.75199 37.7645 6.26945V6.26481L37.7045 6.32049L34.9191 8.90026C34.8546 8.85386 34.8546 8.75642 34.9283 8.67755L37.7138 5.53171Z" fill="#4C4C4C"/>
<path d="M40.2548 24.6898C38.0274 24.6898 35.8046 24.6898 33.4941 24.6898C34.1121 23.1354 35.1405 22.0821 36.7361 21.6738C38.5992 21.1959 40.2179 21.6599 41.5276 23.1076C41.2416 23.7479 40.822 24.2768 40.2548 24.6898Z" fill="#4C4C4C"/>
<path d="M40.2546 24.6898C40.6143 24.1098 41.0847 23.618 41.5274 23.1029C41.9978 23.1586 42.376 23.3257 42.8879 23.4556C43.2706 23.5901 43.4505 23.604 43.7779 23.7154L43.7733 23.7108C43.9485 23.7711 44.1238 23.8221 44.3036 23.901C44.3451 23.9196 44.3866 23.9288 44.4189 23.9381C44.6818 24.0356 44.7971 24.0263 44.9031 24.2397C44.8939 24.5784 44.7233 24.7223 44.3866 24.7176C43.0078 24.7037 41.6289 24.6991 40.2546 24.6898Z" fill="#FFD600"/>
<path d="M39.8028 23.321C39.9684 23.321 40.1026 23.186 40.1026 23.0194C40.1026 22.8528 39.9684 22.7178 39.8028 22.7178C39.6373 22.7178 39.5031 22.8528 39.5031 23.0194C39.5031 23.186 39.6373 23.321 39.8028 23.321Z" fill="white"/>
<path d="M2.43555 15.03L2.4165 15.011H2.42603C2.43079 15.0205 2.43079 15.0252 2.43555 15.03Z" fill="white"/>
<path d="M58.074 11.7909H53.0105V24.713H48.3989V11.7909H43.3123V8.05579H58.074V11.7909Z" fill="#4C4C4C"/>
<path d="M71.2955 8.80281C72.3976 9.30392 73.2508 10.0185 73.8503 10.9464C74.4498 11.8744 74.7495 12.9648 74.7495 14.2176C74.7495 15.4703 74.4498 16.5561 73.8503 17.4794C73.2508 18.3981 72.3976 19.108 71.2955 19.6091C70.1933 20.1102 68.8928 20.3608 67.394 20.3608H64.5072V24.7176H59.8218V8.05579H67.3894C68.8928 8.05579 70.1933 8.3017 71.2955 8.80281ZM69.2894 16.0132C69.7782 15.591 70.0226 14.9924 70.0226 14.2176C70.0226 13.4427 69.7782 12.8395 69.2894 12.408C68.8006 11.9811 68.0765 11.7631 67.1127 11.7631H64.5118V16.6442H67.1127C68.0719 16.6442 68.796 16.4354 69.2894 16.0132Z" fill="#4C4C4C"/>
</svg>
