<svg width="214" height="43" viewBox="0 0 214 43" fill="none" xmlns="http://www.w3.org/2000/svg">
<path d="M112.591 11.1885L101.879 34.2229H123.297L112.591 11.1885ZM112.591 23.4773L115.512 29.7665H109.664L112.591 23.4773Z" fill="white"/>
<path d="M143.27 14.8734C141.301 12.925 138.591 11.9282 135.114 11.9282H126.435V34.2231H135.114C138.591 34.2231 141.301 33.2328 143.27 31.2521C145.206 29.3037 146.191 26.5771 146.191 23.0789C146.191 19.5806 145.206 16.8541 143.27 14.8734ZM138.962 27.7539C138.067 28.8342 136.776 29.3937 135.114 29.3937H132.347V16.7576H135.114C136.776 16.7576 138.067 17.3171 138.962 18.3974C139.857 19.4842 140.285 21.0597 140.285 23.0724C140.285 25.0916 139.85 26.6671 138.962 27.7539Z" fill="white"/>
<path d="M164.566 14.9376C162.316 12.674 159.638 11.5615 156.475 11.5615C154.66 11.5615 152.934 11.9666 151.368 12.7705C149.796 13.5743 148.479 14.6932 147.399 16.0822L151.643 19.3618C152.844 17.7542 154.474 16.9504 156.475 16.9504C157.798 16.9504 158.967 17.3233 160.048 18.095C161.096 18.8667 161.831 19.8313 162.233 21.0338H155.74V25.1236H162.233C161.831 26.3326 161.096 27.2908 160.048 28.0689C158.967 28.8405 157.798 29.2135 156.475 29.2135C154.474 29.2135 152.844 28.4032 151.643 26.8277L147.399 30.0816C148.473 31.4706 149.796 32.5896 151.368 33.3934C152.94 34.2036 154.66 34.6023 156.475 34.6023C159.645 34.6023 162.323 33.4898 164.566 31.2263C166.816 28.9627 167.922 26.2683 167.922 23.0851C167.922 19.8891 166.816 17.1947 164.566 14.9376Z" fill="white"/>
<path d="M191.001 11.9282H184.386L178.723 20.661H176.972V11.9282H171.06V34.2231H176.972V25.4903H178.723L184.386 34.2231H191.001L183.766 23.0789L191.001 11.9282Z" fill="white"/>
<path d="M204.352 29.2072C202.659 29.2072 201.246 28.6155 200.045 27.4066C198.849 26.1976 198.261 24.7765 198.261 23.0724C198.261 21.3683 198.849 19.9471 200.045 18.7381C201.246 17.5292 202.659 16.944 204.352 16.944C206.353 16.944 207.983 17.7478 209.184 19.3555L213.435 16.0759C212.361 14.6804 211.038 13.568 209.466 12.7641C207.893 11.9603 206.174 11.5552 204.359 11.5552C201.189 11.5552 198.511 12.6677 196.267 14.9312C194.018 17.1884 192.912 19.8828 192.912 23.0724C192.912 26.2619 194.018 28.9564 196.267 31.2135C198.517 33.4706 201.195 34.5896 204.359 34.5896C206.174 34.5896 207.9 34.1909 209.466 33.3806C211.038 32.5768 212.355 31.4579 213.435 30.0689L209.184 26.815C207.989 28.4033 206.353 29.2072 204.352 29.2072Z" fill="white"/>
<path d="M62.3098 33.8694L58.1106 33.355L62.2011 34.0688L62.3098 33.8694Z" fill="white"/>
<path d="M3.13201 12.3784L3.71363 12.9765H2.85718V12.3784H3.13201Z" fill="#0039A2"/>
<path d="M3.40684 17.2008H2.85718V16.6221L3.40684 17.2008Z" fill="#0039A2"/>
<path d="M3.36189 20.8213C3.36827 20.834 3.36827 20.8404 3.37465 20.8467L3.34912 20.8213H3.36189Z" fill="#0039A2"/>
<path d="M3.92425 21.4194H3.70694C3.5919 21.2329 3.48964 21.0464 3.38098 20.8535L3.92425 21.4194Z" fill="#0039A2"/>
<path d="M5.26001 22.828L4.6784 22.7894C4.53779 22.5965 4.44191 22.4293 4.31409 22.23H4.69118L5.26001 22.828Z" fill="#0039A2"/>
<path d="M39.2816 30.6729C38.9237 30.8786 38.5594 31.0844 38.1951 31.2709H32.6537C32.4556 31.0716 32.2575 30.8722 32.0593 30.6729H39.2816Z" fill="#0039A2"/>
<path d="M31.9954 32.0811C32.1935 32.2804 32.3916 32.4797 32.5898 32.6791H17.3143C16.803 32.499 16.2917 32.2997 15.7996 32.0811H31.9954Z" fill="#0039A2"/>
<path d="M36.4885 32.0811C35.99 32.2933 35.4851 32.499 34.9674 32.6791H34.0342C33.8361 32.4797 33.638 32.2804 33.4398 32.0811H36.4885Z" fill="#0039A2"/>
<path d="M6.2699 34.2935H22.7086L10.7375 38.2225C9.13325 37.1101 7.63127 35.8046 6.2699 34.2935Z" fill="white"/>
<path d="M45.4365 34.242C41.966 34.242 38.5018 34.2291 35.0313 34.2548C34.4369 34.2613 34.0023 34.1069 33.574 33.6697C33.4334 33.5282 33.2992 33.3931 33.1586 33.2517C32.9669 33.0588 32.7751 32.8658 32.5834 32.6729C32.3852 32.4736 32.1871 32.2742 31.989 32.0749C31.7205 31.8048 31.4521 31.5347 31.1837 31.2646C30.9855 31.0653 30.7874 30.8659 30.5893 30.6666C30.3208 30.3965 30.0524 30.1264 29.7839 29.8563C29.5922 29.657 29.3877 29.4576 29.1895 29.2583C28.9275 28.9882 28.6591 28.7181 28.3906 28.448C28.1989 28.2487 27.9944 28.0493 27.7962 27.85C27.5342 27.5799 27.2657 27.3098 26.9909 27.0397C26.7992 26.8404 26.601 26.641 26.3965 26.4417C26.1345 26.1716 25.866 25.9015 25.5976 25.6314C25.4058 25.4321 25.2013 25.2327 25.0032 25.0334C24.9968 25.0269 24.9904 25.0205 24.984 25.0141C24.722 24.7504 24.4663 24.4868 24.1979 24.2231C24.0061 24.0238 23.808 23.8244 23.6035 23.6251C23.3414 23.355 23.073 23.0849 22.7981 22.8148C22.6 22.6155 22.4019 22.4161 22.2037 22.2168C21.9417 21.9467 21.6733 21.6766 21.3984 21.4065C21.2067 21.2072 21.0022 21.0078 20.804 20.8085C20.542 20.5384 20.2735 20.2683 19.9987 19.9982C19.807 19.7989 19.6024 19.5995 19.4043 19.4002C19.1359 19.1301 18.8674 18.86 18.599 18.5899C18.4009 18.3906 18.2027 18.1912 18.0046 17.9919C17.7361 17.7218 17.4741 17.4517 17.1993 17.1816C17.0011 16.9823 16.803 16.7829 16.6049 16.5836C16.3364 16.3135 16.0744 16.0434 15.8059 15.7733C15.6078 15.574 15.4097 15.3746 15.2115 15.1753L14.4062 14.365C14.2081 14.1657 14.01 13.9663 13.8118 13.767C13.5434 13.4969 13.2813 13.2268 13.0065 12.9567C12.8084 12.7574 12.6102 12.558 12.4121 12.3587C12.1437 12.0886 11.8752 11.8185 11.6068 11.5484C11.4087 11.3491 11.2105 11.1497 11.0124 10.9504L10.2262 10.1594C10.0281 9.96006 9.82998 9.76072 9.63185 9.56137C9.36341 9.29128 9.10136 9.0212 8.83292 8.75111C8.70509 8.62893 8.58366 8.50032 8.46222 8.37814C8.38552 8.30097 8.31522 8.23023 8.23852 8.15307C6.5448 6.44896 4.85747 4.75129 3.17014 3.05361C2.47347 2.35911 1.7832 1.58743 1.04819 0.790039C0.843665 1.39451 0.696663 2.05044 0.562444 2.73208C0.524095 2.91857 0.485747 3.11148 0.447398 3.29797C0.428224 3.39443 0.40905 3.49089 0.396267 3.58735C0.377093 3.67094 0.357919 3.75454 0.351527 3.84457V3.851H0.357919L3.76454 8.14664L3.77093 8.15307C3.86041 8.27525 3.87319 8.42315 3.7901 8.48746L3.47053 8.15307L0.223699 4.77058L0.217308 4.76415C0.0766969 5.78018 0.0063914 6.84766 0 7.94086C0 7.9923 0 8.05018 0.0063914 8.10162C0.0063914 8.05018 0.0063914 7.99873 0.0127828 7.94086C0.0511312 7.96015 0.0894797 7.9923 0.115045 8.02446L2.85696 11.4777L2.92087 11.5549L3.56001 12.3651L4.03298 12.9632L4.10328 13.0532C4.19276 13.1689 4.19915 13.3168 4.11606 13.3811L3.71341 12.9632L3.13179 12.378L0.0255656 9.1691C0.0255656 9.22698 0.031957 9.27842 0.031957 9.32987C0.0447398 9.54851 0.0575226 9.76715 0.0703055 9.98579C0.0894797 10.2044 0.108654 10.4231 0.127828 10.6481C0.147002 10.8411 0.166177 11.034 0.191742 11.2269C0.204525 11.2976 0.210916 11.3684 0.223699 11.4391C0.287613 11.9407 0.370701 12.4423 0.466573 12.9439C0.466573 12.9503 0.472964 12.9503 0.472964 12.9503L3.36827 16.59L3.83484 17.2009L4.44203 17.9662C4.45481 17.979 4.4612 17.9919 4.46759 18.0047C4.5379 18.1205 4.5379 18.2491 4.4612 18.3134L4.1672 18.0047L3.40023 17.1945L2.85057 16.6157L0.805317 14.4743L0.798926 14.4679C1.15684 15.8826 1.6362 17.2845 2.26256 18.6542C2.26895 18.6607 2.26895 18.6671 2.26895 18.6671C2.28812 18.7121 2.3073 18.7507 2.32647 18.7893L2.33286 18.7957L2.85696 19.458L3.29796 20.0175L3.93711 20.8278L4.41646 21.4258L5.0556 22.2361L5.34961 22.609C5.40713 22.6798 5.43269 22.7698 5.4263 22.8405C5.41991 22.892 5.40074 22.9306 5.36878 22.9563L5.25374 22.8405L4.6849 22.2425L3.91793 21.4322L3.37466 20.8663C3.47692 21.0593 3.58558 21.2458 3.70062 21.4322C3.85402 21.7088 4.02019 21.9724 4.19276 22.2425C4.32059 22.4418 4.44842 22.6476 4.58264 22.8405C4.7616 23.1171 4.94695 23.3871 5.14508 23.6508C5.20899 23.7408 5.27291 23.8309 5.33682 23.9144C5.41991 24.0302 5.503 24.1395 5.59248 24.2488C5.58609 24.2553 5.59248 24.2553 5.59887 24.2553C5.8034 24.5254 6.01431 24.7954 6.23162 25.0591C6.3978 25.2584 6.57036 25.4642 6.74293 25.6571C6.98581 25.9337 7.22868 26.2037 7.48433 26.4674C7.67608 26.6732 7.87421 26.8725 8.07874 27.0654C8.36635 27.342 8.65396 27.612 8.94797 27.8757C9.17806 28.0815 9.41454 28.2873 9.65102 28.4737C9.98977 28.7567 10.3349 29.0203 10.6864 29.284C10.9677 29.4898 11.2489 29.6956 11.5365 29.882C11.9519 30.1714 12.3802 30.4351 12.8148 30.6923C13.1599 30.9045 13.5114 31.0974 13.8693 31.2903C14.4062 31.5733 14.9623 31.8434 15.5247 32.1006C15.9977 32.3128 16.477 32.5121 16.9692 32.6986C18.7716 33.3931 20.6826 33.9204 22.7151 34.3063L13.831 40.0745C24.6708 45.5534 38.6424 43.1805 46.3505 34.2613H45.4365V34.242Z" fill="white"/>
<path d="M52.2688 7.68345L52.3583 7.58699V7.58056C52.3455 6.69314 52.288 5.79928 52.1858 4.90543L52.0899 4.98903V4.99546L48.5618 8.27506C48.5235 8.24291 48.4979 8.20433 48.4915 8.15931C48.4851 8.09501 48.5107 8.02427 48.5618 7.9664L51.9684 4.09518L52.0579 3.99229C51.8918 2.96339 51.6681 1.92164 51.374 0.879883L51.2846 0.969911C49.61 2.66116 48.0377 4.24951 46.4591 5.83787C45.7113 6.59025 44.9379 7.36835 44.139 8.16574C44.0495 8.25577 43.96 8.3458 43.8641 8.44226C43.7555 8.54515 43.6468 8.65447 43.5382 8.76379C43.2698 9.02744 43.0013 9.29753 42.7265 9.57404C42.5283 9.77339 42.3302 9.97274 42.1257 10.1721C41.8573 10.4422 41.5824 10.7123 41.3076 10.9823C41.1095 11.1817 40.9113 11.381 40.7068 11.5804C40.432 11.8505 40.1635 12.1141 39.8887 12.3906C39.6906 12.59 39.486 12.7893 39.2815 12.9887C39.0067 13.2588 38.7382 13.5289 38.4634 13.7989C38.2653 13.9983 38.0608 14.1976 37.8626 14.397C37.5878 14.6671 37.3193 14.9372 37.0445 15.2072C36.8464 15.4066 36.6419 15.6059 36.4373 15.8053C36.1625 16.0754 35.8941 16.3455 35.6192 16.6155C35.4211 16.8149 35.2166 17.0142 35.0121 17.2136C34.7372 17.4837 34.4688 17.7538 34.194 18.0238C33.9958 18.2232 33.7913 18.4225 33.5932 18.6219C33.3183 18.892 33.0499 19.1621 32.7815 19.4321C32.5769 19.6315 32.3788 19.8308 32.1743 20.0302C31.8994 20.3003 31.631 20.5704 31.3626 20.8404C31.158 21.0398 30.9599 21.2391 30.7618 21.4385C30.4869 21.7086 30.2185 21.9787 29.9501 22.2487C29.7455 22.4481 29.5474 22.6474 29.3493 22.8468C29.0744 23.1233 28.806 23.3934 28.5376 23.657L27.3551 24.8467C27.2848 24.9174 27.2018 24.9882 27.1314 25.0525C27.1251 25.0589 27.1187 25.0653 27.1187 25.0653C26.9461 25.2261 26.8374 25.3933 27.0292 25.6634C27.0675 25.7213 27.1187 25.7791 27.189 25.8434C27.3999 26.0492 27.6108 26.2614 27.8217 26.4736C28.0262 26.673 28.2244 26.8723 28.4289 27.0717C28.7037 27.3418 28.9722 27.6054 29.2406 27.8819C29.4387 28.0813 29.6433 28.2806 29.8414 28.48C30.1098 28.7501 30.3783 29.0202 30.6467 29.2902L31.2411 29.8883C31.5096 30.1584 31.7716 30.4285 32.0464 30.6985C32.2446 30.8979 32.4427 31.0972 32.6408 31.2966C32.9093 31.5667 33.1713 31.8368 33.4398 32.1068C33.6379 32.3062 33.836 32.5055 34.0342 32.7049C34.1109 32.7821 34.1876 32.8657 34.2706 32.9428C34.3921 33.065 34.5071 33.1872 34.6286 33.3029C34.9226 33.5987 35.1399 33.6502 35.5234 33.4637C35.958 33.2515 36.4309 32.9943 36.9167 32.7049C37.2299 32.5184 37.5494 32.319 37.8818 32.1068C38.2717 31.8496 38.6679 31.5795 39.0706 31.2966C39.3454 31.1037 39.6203 30.9043 39.8951 30.6985C40.253 30.4349 40.6109 30.1648 40.9624 29.8883C41.2181 29.6889 41.4674 29.4896 41.7102 29.2902C42.0426 29.0202 42.3622 28.7501 42.6753 28.48C42.9118 28.2806 43.1419 28.0749 43.3592 27.8819C43.666 27.6054 43.96 27.3353 44.2285 27.0717C44.4394 26.8659 44.6439 26.6666 44.8356 26.4736C44.9059 26.4029 44.9699 26.3322 45.0338 26.2679C45.2191 26.0685 45.4045 25.8692 45.5834 25.6698C45.7624 25.4705 45.935 25.2711 46.1075 25.0718C46.3376 24.8081 46.5549 24.538 46.7658 24.2615C46.9192 24.0622 47.0726 23.8628 47.226 23.6635C47.4242 23.3934 47.6159 23.1233 47.8076 22.8532C47.9419 22.6539 48.0761 22.4545 48.2039 22.2552C50.0191 19.4386 51.2462 16.3519 51.879 12.9823L51.8087 13.0466L48.1592 16.4033C48.0697 16.339 48.0761 16.204 48.1783 16.0882L48.4212 15.8181L48.4851 15.7474L52.0068 11.8376V11.8312L52.0771 11.754V11.7476C52.1282 11.4003 52.1666 11.0595 52.2049 10.7123C52.2752 10.037 52.3264 9.37469 52.3392 8.70591V8.69948L52.2561 8.77665L48.3957 12.3521C48.3062 12.2878 48.3062 12.1527 48.4084 12.0434L52.2688 7.68345Z" fill="white"/>
<path d="M55.7906 34.2357C52.7035 34.2357 49.6229 34.2357 46.4208 34.2357C47.2772 32.0814 48.7025 30.6217 50.9139 30.0558C53.4961 29.3935 55.7394 30.0365 57.5546 32.0429C57.1583 32.9303 56.5767 33.6634 55.7906 34.2357Z" fill="white"/>
<path d="M55.7904 34.2359C56.2889 33.4321 56.9409 32.7504 57.5544 32.0366C58.2064 32.1138 58.7305 32.3453 59.4399 32.5253C59.9704 32.7118 60.2197 32.7311 60.6734 32.8855L60.667 32.879C60.9099 32.9626 61.1528 33.0334 61.4021 33.1427C61.4596 33.1684 61.5171 33.1813 61.5618 33.1941C61.9262 33.3292 62.0859 33.3163 62.2329 33.6121C62.2202 34.0815 61.9837 34.2809 61.5171 34.2745C59.6061 34.2552 57.695 34.2487 55.7904 34.2359Z" fill="#FFD600"/>
<path d="M55.1641 32.3384C55.3935 32.3384 55.5795 32.1513 55.5795 31.9204C55.5795 31.6896 55.3935 31.5024 55.1641 31.5024C54.9347 31.5024 54.7487 31.6896 54.7487 31.9204C54.7487 32.1513 54.9347 32.3384 55.1641 32.3384Z" fill="white"/>
<path d="M3.37465 20.8467L3.34912 20.8213H3.36189C3.36827 20.834 3.36827 20.8404 3.37465 20.8467Z" fill="white"/>
<path d="M80.487 16.3588H73.4692V34.268H67.0778V16.3588H60.0281V11.1821H80.487V16.3588Z" fill="white"/>
<path d="M98.8111 12.2175C100.339 12.912 101.521 13.9023 102.352 15.1884C103.183 16.4745 103.598 17.9857 103.598 19.722C103.598 21.4582 103.183 22.963 102.352 24.2427C101.521 25.5159 100.339 26.4998 98.8111 27.1943C97.2836 27.8888 95.4812 28.2361 93.404 28.2361H89.403V34.2744H82.9093V11.1821H93.3976C95.4812 11.1821 97.2836 11.523 98.8111 12.2175ZM96.0309 22.2106C96.7083 21.6254 97.0471 20.7959 97.0471 19.722C97.0471 18.648 96.7083 17.8121 96.0309 17.214C95.3534 16.6224 94.3499 16.3202 93.0141 16.3202H89.4094V23.0852H93.0141C94.3435 23.0852 95.347 22.7958 96.0309 22.2106Z" fill="white"/>
</svg>
