<svg xmlns="http://www.w3.org/2000/svg" width="154" height="45" viewBox="0 0 154 45" fill="none">
<path d="M18.8614 31.0594C26.7848 31.0594 33.2081 27.3679 33.2081 22.8143C33.2081 18.2607 26.7848 14.5692 18.8614 14.5692C10.9379 14.5692 4.51465 18.2607 4.51465 22.8143C4.51465 27.3679 10.9379 31.0594 18.8614 31.0594Z" fill="white"/>
<path d="M2.42573 28.011H2.41651L2.43496 28.0295C2.43034 28.0249 2.43034 28.0156 2.42573 28.011ZM34.9329 21.6636L37.7137 18.5317C37.7045 17.8728 37.663 17.2279 37.5846 16.5876L35.039 18.9539C35.0113 18.9307 34.9929 18.9029 34.9883 18.8704C34.9837 18.824 35.0021 18.773 35.039 18.7312L37.497 15.938C37.3817 15.1678 37.2157 14.4161 37.0036 13.683C34.7623 5.78593 27.4852 0 18.8615 0C10.2793 0 3.03908 5.72561 0.75633 13.5577C0.622594 14.0171 0.502692 14.4857 0.405848 14.959C0.378179 15.0935 0.350509 15.2327 0.322839 15.3673C0.309005 15.4369 0.29517 15.5065 0.285947 15.5761C0.272112 15.6364 0.262889 15.7014 0.253665 15.7663L2.71165 18.8658L2.71626 18.8704C2.78083 18.9586 2.79005 19.0653 2.7301 19.1117L2.49952 18.8704L0.156822 16.4298C0.059978 17.1815 0.00925028 17.9424 0.00463867 18.7173V18.7219C0.0323083 18.7358 0.0599779 18.759 0.0784244 18.7822L2.0568 21.2739L2.10292 21.3295L2.56408 21.9142L2.90534 22.3457L2.95607 22.4106C3.02063 22.4941 3.02524 22.6009 2.96529 22.6473L2.67476 22.3457L2.25971 21.9188L0.0184735 19.6035C0.0184735 19.6453 0.0230851 19.6824 0.0230851 19.7195C0.0323083 19.8773 0.0415315 20.035 0.0507547 20.1928C0.0645896 20.3505 0.0784244 20.5083 0.0922592 20.6707C0.106094 20.8099 0.119929 20.9491 0.138375 21.0883C0.147598 21.1393 0.15221 21.1903 0.161433 21.2414C0.216773 21.5986 0.327451 21.9327 0.392014 22.29L0.373567 22.3086C0.373567 22.3086 0.332063 22.3225 0.332063 22.3271C0.332063 22.3318 0.336674 22.3318 0.336674 22.3318L2.42573 24.9579L2.76699 25.3987L3.20509 25.9509C3.21432 25.9601 3.21893 25.9694 3.22354 25.9787C3.27427 26.0622 3.27427 26.155 3.21893 26.2014L3.00679 25.9787L2.4534 25.3941L2.0568 24.9765L0.581089 23.4314L0.594924 23.45L0.608759 23.4732L0.594924 23.4639C0.857786 24.5171 1.20366 25.459 1.64176 26.4334L1.63715 26.4566V26.4612L1.67865 26.5448L1.68326 26.5494L2.06141 27.0273L2.37962 27.431L2.84078 28.0156L3.18665 28.4471L3.64781 29.0317L3.85994 29.3009C3.90145 29.3519 3.91989 29.4169 3.91528 29.4679C3.91067 29.505 3.89683 29.5328 3.87378 29.5514L3.79077 29.4679L3.38033 29.0364L2.82694 28.4518L2.43496 28.0434C2.50874 28.1826 2.58714 28.3172 2.67015 28.4518L2.68398 28.4378C2.68859 28.4425 2.68859 28.4471 2.69321 28.4518C2.8085 28.6466 2.92379 28.8137 3.0483 28.9993C3.14053 29.1431 3.23276 29.3055 3.33422 29.4447C3.46795 29.6442 3.58786 29.8391 3.73082 30.0293L3.84611 30.2381C3.90606 30.3216 3.96601 30.4005 4.03057 30.4794C4.02596 30.484 4.03057 30.484 4.03518 30.484C4.18737 30.6789 4.34877 30.8738 4.51018 31.064C4.63469 31.2078 4.76382 31.3563 4.88833 31.4955C5.06818 31.695 5.25265 31.8899 5.44172 32.0801C5.58468 32.2286 5.73225 32.3725 5.87983 32.5117C6.09196 32.7112 6.30409 32.906 6.52545 33.0963C6.69608 33.2448 6.87132 33.3886 7.04656 33.5278C7.29559 33.7319 7.54923 33.9222 7.80748 34.1124L8.43004 34.5439C8.73902 34.7481 9.05261 34.943 9.37081 35.1285C9.62906 35.277 9.88731 35.4255 10.1548 35.5601C10.556 35.7688 10.9664 35.9637 11.3861 36.1447C11.7458 36.3024 12.1101 36.4463 12.479 36.5762C14.4666 37.2907 16.6156 37.6805 18.8523 37.6805C20.6047 37.6805 22.3064 37.4438 23.9158 36.9938C23.7775 36.8546 23.6391 36.7154 23.5008 36.5762C23.3578 36.4324 23.2149 36.2885 23.0719 36.1447C22.8782 35.9498 22.6845 35.7549 22.4908 35.5601C22.3479 35.4162 22.2049 35.2724 22.062 35.1285C21.8683 34.9337 21.6746 34.7388 21.4809 34.5439C21.3425 34.4001 21.195 34.2562 21.052 34.1124C20.8629 33.9175 20.6692 33.7227 20.4756 33.5278C20.3372 33.3839 20.1896 33.2401 20.0467 33.0963C19.8576 32.9014 19.6639 32.7065 19.4656 32.5117C19.3273 32.3678 19.1843 32.224 19.0367 32.0801C18.8477 31.8853 18.654 31.6904 18.4603 31.4955H19.4979C19.5256 31.5373 19.5625 31.579 19.6132 31.6254C19.7654 31.7739 19.9176 31.927 20.0697 32.0801C20.2173 32.224 20.3603 32.3678 20.5078 32.5117C20.7061 32.7065 20.8998 32.8968 21.0935 33.0963C21.2365 33.2401 21.384 33.3839 21.527 33.5278C21.7207 33.7227 21.9144 33.9175 22.1081 34.1124L22.5369 34.5439C22.7306 34.7388 22.9197 34.9337 23.118 35.1285C23.261 35.2724 23.4039 35.4162 23.5469 35.5601C23.7406 35.7549 23.9297 35.9498 24.1233 36.1447C24.2663 36.2885 24.4093 36.4324 24.5522 36.5762C24.6076 36.6319 24.6629 36.6922 24.7228 36.7479C24.8935 36.6968 25.0595 36.6365 25.2255 36.5762C25.5991 36.4463 25.9634 36.2978 26.3231 36.1447C26.7427 35.9637 27.1486 35.7735 27.5498 35.5601C27.8172 35.4255 28.0755 35.277 28.3337 35.1285C28.6519 34.943 28.9655 34.7481 29.2745 34.5439C29.4866 34.4047 29.6942 34.2609 29.8971 34.1124C30.1599 33.9268 30.4136 33.7319 30.6626 33.5278C30.8378 33.3886 31.0131 33.2448 31.1837 33.0963C31.4051 32.906 31.6172 32.7112 31.8293 32.5117C31.9769 32.3725 32.1245 32.2286 32.2674 32.0801C32.4565 31.8899 32.641 31.695 32.8208 31.4955C32.95 31.3563 33.0791 31.2078 33.199 31.064C33.365 30.8738 33.5218 30.6789 33.6786 30.4794C33.7893 30.3355 33.8999 30.1917 34.006 30.0479C34.149 29.8576 34.2873 29.6628 34.4257 29.4632C34.5271 29.3241 34.6194 29.1756 34.7116 29.0317C35.9936 27.0459 36.9159 24.8002 37.3725 22.3874L34.7393 24.8094C34.6747 24.7631 34.6793 24.6656 34.7531 24.5821L34.9283 24.3872L34.9744 24.3362L37.5154 21.5151V21.5105C37.6215 20.7913 37.6815 20.0582 37.6999 19.3112V19.3065L34.9145 21.8863C34.8592 21.8399 34.8592 21.7425 34.9329 21.6636ZM21.6238 29.0271H16.0254C15.8363 28.8322 15.6426 28.6374 15.4443 28.4425H22.2049C22.0112 28.6374 21.8175 28.8322 21.6238 29.0271ZM20.6047 30.0432H17.0353C16.8462 29.8484 16.6525 29.6535 16.4542 29.4586H21.1857C20.9874 29.6581 20.7938 29.853 20.6047 30.0432ZM14.439 27.4263H23.2287C23.0304 27.6212 22.8367 27.8161 22.643 28.011H15.0154C14.8263 27.8161 14.6327 27.6212 14.439 27.4263ZM12.4237 25.3987H25.2716C25.0733 25.5936 24.8796 25.7885 24.6813 25.9833H13.0001C12.8065 25.7838 12.6174 25.5889 12.4237 25.3987ZM13.429 26.4148H24.2479C24.0496 26.6097 23.8559 26.8046 23.6622 26.9995H14.0101C13.8164 26.8 13.6227 26.6051 13.429 26.4148ZM25.7097 24.9672H11.9902C11.7965 24.7723 11.6074 24.5775 11.4138 24.3826H26.2954C26.1017 24.5775 25.908 24.7723 25.7097 24.9672ZM9.39387 22.3503H28.3476C28.1493 22.5452 27.9556 22.7401 27.7573 22.9349H9.97493C9.78124 22.7401 9.58756 22.5452 9.39387 22.3503ZM8.38854 21.3342H29.376C29.1777 21.5291 28.984 21.7193 28.7857 21.9188H8.9696C8.7713 21.7239 8.58223 21.5291 8.38854 21.3342ZM31.4143 19.3065C31.2206 19.4968 31.0269 19.6917 30.8286 19.8912H6.94972C6.75603 19.6963 6.56695 19.5014 6.37327 19.3065H31.4143ZM7.3786 20.318H30.3951C30.2014 20.5129 30.0031 20.7078 29.8048 20.9027H7.95966L7.3786 20.318ZM10.9849 23.9511L10.4038 23.3664H27.3238C27.1255 23.5613 26.9318 23.7562 26.7335 23.9511H10.9849ZM18.0452 31.0594C18.0406 31.0547 18.036 31.0501 18.0314 31.0455C17.8423 30.8552 17.6579 30.665 17.4642 30.4747H20.1712L19.7469 30.9016C19.6962 30.9527 19.6362 31.0037 19.5855 31.0501C19.5809 31.0547 19.5763 31.0594 19.5763 31.0594H18.0452Z" fill="#FFD600"/>
<path d="M44.9585 37.4253L41.9287 37.0541L44.8801 37.5691L44.9585 37.4253Z" fill="white"/>
<path d="M34.9838 18.875V19.3065H2.06152V18.875H2.49963L2.73021 19.1163C2.79016 19.0699 2.78555 18.9632 2.71637 18.875H34.9838Z" fill="#0039A2"/>
<path d="M34.9884 19.8865H2.06152V20.318H34.9884V19.8865Z" fill="#0039A2"/>
<path d="M34.9884 20.9027V21.3342H2.10764L2.06152 21.2785V20.9027H34.9884Z" fill="#0039A2"/>
<path d="M2.25982 21.9188L2.67948 22.3503H2.06152V21.9188H2.25982Z" fill="#0039A2"/>
<path d="M34.9836 21.9188V22.3503H2.90986L2.5686 21.9188H34.9836Z" fill="#0039A2"/>
<path d="M34.9884 22.9349H2.06152V23.3664H34.9884V22.9349Z" fill="#0039A2"/>
<path d="M34.9838 23.951V24.3315L34.9377 24.3826H2.06152V23.951H34.9838Z" fill="#0039A2"/>
<path d="M2.45812 25.3987H2.06152V24.9811L2.45812 25.3987Z" fill="#0039A2"/>
<path d="M34.9837 24.9672V25.3987H2.76704L2.42578 24.9672H34.9837Z" fill="#0039A2"/>
<path d="M34.9838 25.9834V26.4149H2.06152V25.9834H3.01151L3.22365 26.2061C3.27899 26.1597 3.27899 26.0623 3.22826 25.9834H34.9838Z" fill="#0039A2"/>
<path d="M34.9838 26.9949V27.431H2.37972L2.06152 27.0274V26.9949H34.9838Z" fill="#0039A2"/>
<path d="M2.42603 28.011C2.43079 28.0205 2.43079 28.0252 2.43555 28.03L2.4165 28.011H2.42603Z" fill="#0039A2"/>
<path d="M2.83144 28.4425H2.67465C2.59164 28.3079 2.51785 28.1734 2.43945 28.0342L2.83144 28.4425Z" fill="#0039A2"/>
<path d="M34.9835 28.011V28.4425H3.18647L2.84521 28.011H34.9835Z" fill="#0039A2"/>
<path d="M3.79531 29.4586L3.37565 29.4308C3.2742 29.2916 3.20503 29.1709 3.11279 29.0271H3.38488L3.79531 29.4586Z" fill="#0039A2"/>
<path d="M34.7207 29.0271C34.6285 29.1709 34.5317 29.3194 34.4348 29.4586H3.91982C3.92443 29.4076 3.90137 29.3473 3.86448 29.2916L3.65234 29.0225H34.7207V29.0271Z" fill="#0039A2"/>
<path d="M4.03047 30.4747H17.4641H20.1711H33.6877C33.7984 30.3309 33.9091 30.1871 34.0151 30.0432H20.6H17.0306L3.73071 30.0247L4.03047 30.4747Z" fill="#0039A2"/>
<path d="M33.2081 31.0593C33.0836 31.2032 32.9544 31.3516 32.8299 31.4908H4.8928C4.76368 31.3516 4.63455 31.2032 4.51465 31.0593H33.2081Z" fill="#0039A2"/>
<path d="M19.0506 32.0754C19.1981 32.2193 19.3411 32.3631 19.4794 32.5069H5.88903C5.74146 32.3678 5.59389 32.2239 5.45093 32.0754H19.0506Z" fill="#0039A2"/>
<path d="M32.2766 32.0754C32.1336 32.2239 31.986 32.3678 31.8385 32.5069H20.5216C20.3786 32.3631 20.2311 32.2193 20.0835 32.0754H32.2766Z" fill="#0039A2"/>
<path d="M20.0559 33.087C20.1988 33.2309 20.3464 33.3747 20.4848 33.5185H7.05114C6.8759 33.3793 6.70066 33.2355 6.53003 33.087H20.0559Z" fill="#0039A2"/>
<path d="M31.1884 33.087C31.0177 33.2355 30.8425 33.3793 30.6673 33.5185H21.5363C21.3933 33.3747 21.2504 33.2309 21.1028 33.087H31.1884Z" fill="#0039A2"/>
<path d="M21.0658 34.1031C21.2088 34.247 21.3563 34.3908 21.4947 34.5347H8.43922L7.81665 34.1031H21.0658Z" fill="#0039A2"/>
<path d="M29.9062 34.1031C29.7033 34.2516 29.4912 34.3955 29.2837 34.5347H22.5507L22.1218 34.1031H29.9062Z" fill="#0039A2"/>
<path d="M22.0759 35.1193C22.2188 35.2631 22.3618 35.4069 22.5048 35.5508H10.1641C9.89663 35.4162 9.63838 35.2677 9.38013 35.1193H22.0759Z" fill="#0039A2"/>
<path d="M28.343 35.1193C28.0847 35.2677 27.8218 35.4162 27.559 35.5508H23.5607C23.4178 35.4069 23.2748 35.2631 23.1318 35.1193H28.343Z" fill="#0039A2"/>
<path d="M23.0857 36.1354C23.2287 36.2792 23.3716 36.423 23.5146 36.5669H12.4929C12.1239 36.437 11.755 36.2931 11.3999 36.1354H23.0857Z" fill="#0039A2"/>
<path d="M26.3277 36.1354C25.968 36.2885 25.6036 36.437 25.2301 36.5669H24.5568C24.4138 36.423 24.2709 36.2792 24.1279 36.1354H26.3277Z" fill="#0039A2"/>
<path d="M39.8027 36.321C39.9682 36.321 40.1024 36.1859 40.1024 36.0194C40.1024 35.8528 39.9682 35.7178 39.8027 35.7178C39.6371 35.7178 39.5029 35.8528 39.5029 36.0194C39.5029 36.1859 39.6371 36.321 39.8027 36.321Z" fill="white"/>
<path d="M2.43555 28.03L2.4165 28.011H2.42603C2.43079 28.0205 2.43079 28.0252 2.43555 28.03Z" fill="white"/>
</svg>