<?xml version="1.0" encoding="utf-8"?><svg xmlns="http://www.w3.org/2000/svg" xmlns:xlink="http://www.w3.org/1999/xlink"><symbol fill="none" viewBox="0 0 17 17" id="box" xmlns="http://www.w3.org/2000/svg"><path fill-rule="evenodd" clip-rule="evenodd" d="M8.853.108L8.583 0l-.27.108-7.272 2.909-.458.183v10.44l.458.182 7.272 2.909.27.108.27-.108 7.273-2.91.457-.182V3.2l-.457-.183L8.853.107zM2.038 4.767v7.888l5.818 2.327V7.094L2.038 4.767zM9.31 7.094v7.888l5.818-2.327V4.767L9.31 7.094zm4.586-3.402L8.583 1.567l-1.496.598 5.314 2.126 1.496-.599zm-10.628 0l1.86-.744 5.314 2.126-1.86.744L3.27 3.692z" fill="#353535"/></symbol><symbol fill="none" viewBox="0 0 17 16" id="clock" xmlns="http://www.w3.org/2000/svg"><path fill-rule="evenodd" clip-rule="evenodd" d="M8.583 16a8 8 0 110-16 8 8 0 110 16zm6.4-8a6.4 6.4 0 10-12.8 0 6.4 6.4 0 0012.8 0zm-3.2-.8a.8.8 0 010 1.6h-2.4c-.88 0-1.6-.72-1.6-1.6V4a.8.8 0 011.6 0v3.2h2.4z" fill="#353535"/></symbol><symbol viewBox="0 0 32 32" id="fb" xmlns="http://www.w3.org/2000/svg"><path d="M16 .64C7.517.64.64 7.516.64 16c0 8.483 6.877 15.36 15.36 15.36S31.36 24.483 31.36 16C31.36 7.516 24.483.64 16 .64zm3.639 10.614h-2.31c-.273 0-.577.36-.577.838v1.668h2.888l-.437 2.377h-2.45v7.138h-2.726v-7.138h-2.472V13.76h2.472V12.36c0-2.006 1.392-3.637 3.303-3.637h2.309v2.53z"/></symbol><symbol viewBox="0 0 31 31" id="insta" xmlns="http://www.w3.org/2000/svg"><path fill-rule="evenodd" clip-rule="evenodd" d="M0 15.5C0 6.94 6.94 0 15.5 0 24.06 0 31 6.94 31 15.5 31 24.06 24.06 31 15.5 31 6.94 31 0 24.06 0 15.5zm23.933 5.83c.22-.566.37-1.213.414-2.16.043-.95.053-1.253.053-3.67s-.01-2.72-.053-3.67c-.043-.947-.194-1.594-.414-2.16a4.36 4.36 0 00-1.026-1.576 4.363 4.363 0 00-1.577-1.027c-.566-.22-1.213-.37-2.16-.413-.95-.044-1.253-.054-3.67-.054s-2.72.01-3.67.053c-.947.044-1.594.194-2.16.414a4.36 4.36 0 00-1.576 1.027A4.36 4.36 0 007.067 9.67c-.22.566-.37 1.213-.414 2.16-.043.95-.053 1.253-.053 3.67s.01 2.72.054 3.67c.043.947.193 1.594.413 2.16a4.362 4.362 0 001.027 1.576 4.36 4.36 0 001.576 1.027c.566.22 1.213.37 2.16.414.95.043 1.253.053 3.67.053s2.72-.01 3.67-.053c.947-.044 1.594-.194 2.16-.414a4.55 4.55 0 002.603-2.603zm-1.495-11.08a2.757 2.757 0 00-.665-1.023 2.756 2.756 0 00-1.024-.665c-.313-.122-.784-.267-1.652-.307-.939-.043-1.22-.052-3.597-.052s-2.658.01-3.597.052c-.867.04-1.339.185-1.652.307-.387.142-.737.37-1.023.665a2.76 2.76 0 00-.666 1.024c-.122.313-.267.785-.307 1.652-.043.939-.052 1.22-.052 3.597s.01 2.658.052 3.597c.04.867.185 1.339.307 1.652.142.387.37.736.665 1.024.287.295.637.523 1.024.665.313.122.785.267 1.652.307.939.043 1.22.052 3.597.052s2.658-.01 3.596-.052c.868-.04 1.34-.185 1.653-.307.777-.299 1.39-.912 1.69-1.689.121-.313.266-.784.306-1.652.043-.939.052-1.22.052-3.597s-.01-2.658-.052-3.597c-.04-.867-.185-1.339-.307-1.652zM15.5 20.07a4.57 4.57 0 110-9.14 4.57 4.57 0 010 9.14zm4.751-8.253a1.068 1.068 0 110-2.136 1.068 1.068 0 010 2.136zM18.467 15.5a2.967 2.967 0 11-5.934 0 2.967 2.967 0 015.934 0z"/></symbol><symbol fill="none" viewBox="0 0 14 20" id="mouse" xmlns="http://www.w3.org/2000/svg"><path d="M13.667 7.5A6.663 6.663 0 007 .892 6.663 6.663 0 00.333 7.5v5A6.665 6.665 0 007 19.167a6.665 6.665 0 006.667-6.667v-5zM12 7.5H7.833V2.633A5.004 5.004 0 0112 7.5zM6.167 2.633V7.5H2a5.004 5.004 0 014.167-4.867zM12 12.5c0 2.758-2.242 5-5 5s-5-2.242-5-5V9.167h10V12.5z" fill="#353535"/></symbol><symbol fill="none" viewBox="0 0 18 17" id="plane" xmlns="http://www.w3.org/2000/svg"><path d="M17.143.44a1.503 1.503 0 00-1.47-.384L1.679 4.004a1.502 1.502 0 00-.236 2.803l6.334 3 3 6.334a1.488 1.488 0 001.483.854 1.49 1.49 0 001.32-1.09L17.528 1.91a1.502 1.502 0 00-.384-1.47zm-5.08 14.205L9.538 9.319l2.95-2.95a.901.901 0 00-1.274-1.275l-2.95 2.95-5.326-2.523 12.707-3.584-3.584 12.708z" fill="#353535"/></symbol><symbol fill="none" viewBox="0 0 16 19" id="pulse" xmlns="http://www.w3.org/2000/svg"><path d="M0 10.375h2.833L4.604 4l3.542 11.688 3.187-8.146 1.417 2.833h2.833" stroke="#353535" stroke-width="2"/></symbol><symbol fill="none" viewBox="0 0 19 19" id="right-arrow" xmlns="http://www.w3.org/2000/svg"><path fill-rule="evenodd" clip-rule="evenodd" d="M18.75 9.016c0 .333-.27.603-.602.603H1.818a.602.602 0 110-1.205h16.33c.332 0 .602.27.602.602z" fill="#FFD600"/><path fill-rule="evenodd" clip-rule="evenodd" d="M9.557.426a.602.602 0 01.852 0l8.165 8.165a.603.603 0 010 .851l-8.165 8.165a.603.603 0 01-.852-.852l7.739-7.739-7.739-7.738a.602.602 0 010-.852z" fill="#FFD600"/></symbol><symbol fill="none" viewBox="0 0 18 12" id="right-arrow-2" xmlns="http://www.w3.org/2000/svg"><path fill-rule="evenodd" clip-rule="evenodd" d="M16.313 6a.812.812 0 01-.813.813H.875a.812.812 0 110-1.625H15.5a.812.812 0 01.813.812z" fill="#fff"/><path fill-rule="evenodd" clip-rule="evenodd" d="M17.7 5.425a.812.812 0 010 1.15l-4.875 4.875a.814.814 0 11-1.15-1.15L15.976 6l-4.301-4.3a.813.813 0 111.15-1.15L17.7 5.425z" fill="#fff"/></symbol><symbol fill="none" viewBox="0 0 272 118" id="service-truck" xmlns="http://www.w3.org/2000/svg"><path d="M238.125 70.484h16.75a1.75 1.75 0 001.429-2.761l-7.958-11.25a1.75 1.75 0 00-1.429-.74h-8.792a1.749 1.749 0 00-1.75 1.75v11.25a1.747 1.747 0 001.75 1.75zm1.75-11.25h6.136l5.482 7.75h-11.618v-7.75z" fill="#fff"/><path d="M269.5 93.984h-14.637a9.83 9.83 0 002.181-4.625H262a1.749 1.749 0 001.75-1.75V69.86a1.75 1.75 0 00-.306-.988l-12.083-17.666a1.751 1.751 0 00-1.444-.762h-17.25a1.749 1.749 0 00-1.75 1.75v14.791h-1.5V34.547a1.747 1.747 0 00-1.75-1.75h-4.533L205.2 24.908a5.247 5.247 0 001.273-3.316 5.338 5.338 0 00-2.07-4.278 4.11 4.11 0 01-1.482-3.266h1.8a1.75 1.75 0 001.75-1.75V4.016H269.5a1.749 1.749 0 100-3.5h-105a1.749 1.749 0 100 3.5h31.363V12.3a1.747 1.747 0 001.75 1.75h1.8a7.623 7.623 0 002.847 6.04 1.787 1.787 0 01.705 1.457 1.86 1.86 0 01-1.774 1.776h-.007a1.7 1.7 0 01-1.284-.523 1.781 1.781 0 01-.537-1.284 1.747 1.747 0 00-1.75-1.75 1.749 1.749 0 00-1.75 1.75 5.244 5.244 0 001.29 3.428L179.3 32.8h-4.635a1.749 1.749 0 00-1.75 1.75v32.434H172a1.749 1.749 0 00-1.75 1.75V87.61a1.747 1.747 0 001.75 1.75h6.934a9.83 9.83 0 002.181 4.625H164.5a1.749 1.749 0 000 3.5h105a1.749 1.749 0 000-3.5zM199.363 4.016h3.606v6.532h-3.606V4.016zm-1.008 85.344h39.268a9.83 9.83 0 002.181 4.625h-43.631a9.833 9.833 0 002.181-4.626l.001.001zm42.6-1.75a6.377 6.377 0 016.375-6.375 6.376 6.376 0 016.375 6.375v.006a6.377 6.377 0 01-6.375 6.375 6.376 6.376 0 01-6.375-6.375v-.006zm-6.538-33.667h14.576L260.25 70.4v15.46h-3.206a9.861 9.861 0 00-9.71-8.127 9.864 9.864 0 00-9.711 8.126h-3.206V53.943zM216.166 61.1V42.186h3.125V61.1h-3.125zm-6.625 0V42.186h3.125V61.1h-3.125zm-6.625 0V42.186h3.125V61.1h-3.125zm-6.625 0V42.186h3.125V61.1h-3.125zm-6.625 0V42.186h3.125V61.1h-3.125zm-6.625 0V42.186h3.125V61.1h-3.125zm-6.625 0V42.186h3.124V61.1h-3.124zm46.376-18.914h3.125V61.1h-3.125V42.186zm-21.575-15.2l13.222 5.814h-26.445l13.223-5.814zM176.415 36.3h49.5v2.39h-49.5V36.3zm0 28.3h49.5v2.39h-49.5V64.6zm-2.665 5.884h57.167V85.86h-32.563a9.861 9.861 0 00-9.71-8.126 9.864 9.864 0 00-9.711 8.126h-5.183V70.484zm8.519 17.125a6.378 6.378 0 013.935-5.89 6.377 6.377 0 018.693 4.646 6.38 6.38 0 01-6.253 7.619 6.383 6.383 0 01-6.375-6.375z" fill="#fff"/><rect x="42" y="15" width="85" height="3" rx="1.5" fill="#fff"/><rect y="51" width="85" height="3" rx="1.5" fill="#fff"/><rect x="120" y="115" width="85" height="3" rx="1.5" fill="#fff"/></symbol><symbol fill="none" viewBox="0 0 20 20" id="time" xmlns="http://www.w3.org/2000/svg"><path d="M18.457 8.047h-5a.157.157 0 00-.156.156v.938c0 .086.07.156.156.156h5c.086 0 .156-.07.156-.156v-.938a.157.157 0 00-.156-.156zm-2.617 2.656h-2.383a.157.157 0 00-.156.156v.938c0 .086.07.156.156.156h2.383c.086 0 .156-.07.156-.156v-.938a.157.157 0 00-.156-.156zM9.322 6.3h-.845a.218.218 0 00-.22.219v4.843c0 .07.034.135.09.176l2.909 2.121c.098.07.234.051.304-.047l.502-.685v-.002a.219.219 0 00-.048-.305L9.539 10.83V6.518a.217.217 0 00-.217-.22z" fill="#353535"/><path d="M15.719 13.162h-1.13a.321.321 0 00-.27.15 6.267 6.267 0 01-2.848 2.423 6.189 6.189 0 01-2.422.488 6.194 6.194 0 01-4.4-1.822A6.196 6.196 0 012.825 10a6.195 6.195 0 011.822-4.4 6.195 6.195 0 014.4-1.824 6.193 6.193 0 014.4 1.822c.333.333.622.696.87 1.089.059.093.162.15.272.15h1.129c.135 0 .22-.14.16-.26A7.638 7.638 0 009.14 2.365c-4.221-.052-7.727 3.403-7.735 7.62a7.64 7.64 0 007.64 7.652 7.64 7.64 0 006.833-4.215.18.18 0 00-.16-.26z" fill="#353535"/></symbol><symbol viewBox="0 0 22 22" id="top-right-arrow" xmlns="http://www.w3.org/2000/svg"><path d="M1 20.583L20.167 1.417M1 1.417h19.167v19.166" fill="none" stroke="#FFD600" stroke-width="2" stroke-linecap="round" stroke-linejoin="round"/></symbol><symbol fill="none" viewBox="0 0 22 17" id="truck" xmlns="http://www.w3.org/2000/svg"><path d="M14.155 13.571a2.095 2.095 0 114.19 0m-6.286-1.047V2.048A1.047 1.047 0 0011.012 1H2.63a1.048 1.048 0 00-1.048 1.048v10.476a1.048 1.048 0 001.048 1.047h1.047l8.381-1.047zm0 0a1.047 1.047 0 01-1.047 1.047H7.869l4.19-1.047zm0 0V4.143a1.048 1.048 0 011.048-1.048h2.71c.277 0 .543.11.74.307l3.576 3.577c.197.196.307.463.307.74v4.805a1.048 1.048 0 01-1.047 1.047h-1.048l-6.286-1.047zm0 0a1.048 1.048 0 001.048 1.047h1.048l-2.096-1.047zM3.68 13.57a2.095 2.095 0 104.19 0h-4.19zm0 0a2.095 2.095 0 114.19 0h-4.19zm10.476 0a2.095 2.095 0 104.19 0h-4.19z" stroke="#353535" stroke-width="2" stroke-linecap="round" stroke-linejoin="round"/><path d="M7.869 13.571a2.095 2.095 0 11-4.19 0 2.095 2.095 0 014.19 0zM18.345 13.571a2.096 2.096 0 11-4.19 0 2.096 2.096 0 014.19 0z" fill="#F4F4F4"/></symbol><symbol viewBox="0 0 31 31" id="vk" xmlns="http://www.w3.org/2000/svg"><path d="M15.5 0C6.94 0 0 6.94 0 15.5 0 24.06 6.94 31 15.5 31 24.06 31 31 24.06 31 15.5 31 6.94 24.06 0 15.5 0zm7.862 17.176c.723.706 1.487 1.37 2.136 2.149.287.344.558.7.764 1.1.294.572.029 1.198-.483 1.232h-3.175c-.82.067-1.473-.263-2.023-.824-.44-.447-.847-.924-1.27-1.386a2.967 2.967 0 00-.572-.509c-.433-.281-.809-.195-1.057.257-.252.46-.31.97-.334 1.482-.035.749-.26.945-1.012.98-1.605.075-3.129-.169-4.544-.978-1.25-.714-2.216-1.721-3.058-2.862-1.64-2.224-2.896-4.664-4.025-7.175-.254-.566-.068-.868.555-.88a88.34 88.34 0 013.11 0c.421.006.7.247.863.645.56 1.378 1.246 2.69 2.107 3.905.229.324.463.647.796.875.368.253.649.17.822-.241.111-.261.159-.54.183-.82.082-.958.092-1.916-.05-2.87-.09-.597-.425-.983-1.02-1.096-.304-.057-.26-.17-.112-.343.256-.3.496-.484.975-.484l3.588-.001c.565.111.692.365.769.934l.003 3.987c-.006.22.11.874.507 1.018.317.105.526-.15.716-.35.86-.913 1.473-1.99 2.022-3.106.242-.492.451-1.001.654-1.51.151-.378.386-.564.812-.557l3.454.004c.102 0 .206 0 .306.018.583.1.742.35.562.918-.283.893-.834 1.636-1.373 2.381-.577.798-1.192 1.568-1.764 2.37-.525.732-.484 1.101.168 1.737z"/></symbol><symbol fill="none" viewBox="0 0 17 14" id="warning" xmlns="http://www.w3.org/2000/svg"><path d="M10.823 1.254l5.361 8.681a2.671 2.671 0 01-.846 3.664c-.415.261-.9.4-1.394.401H3.222a2.649 2.649 0 01-2.639-2.66c0-.496.139-.982.399-1.405l5.361-8.68a2.626 2.626 0 014.48 0zm-1.776.653a.876.876 0 00-1.21.284l-5.362 8.682a.89.89 0 00-.133.469c0 .49.394.886.88.886h10.721a.876.876 0 00.465-.134c.2-.129.34-.328.393-.555a.884.884 0 00-.11-.666L9.33 2.191a.883.883 0 00-.282-.284zm-.464 8.982a.812.812 0 01-.565-.228.767.767 0 01-.235-.55c0-.206.085-.404.235-.55a.812.812 0 01.565-.228c.212 0 .416.082.566.228a.767.767 0 010 1.1.812.812 0 01-.566.228zm0-7c.212 0 .416.082.566.228.15.145.234.343.234.55v3.11a.767.767 0 01-.234.55.812.812 0 01-.566.229.812.812 0 01-.565-.228.767.767 0 01-.235-.55V4.667c0-.207.085-.405.235-.55a.812.812 0 01.565-.228z" fill="#353535"/></symbol><symbol viewBox="0 0 31 31" id="yt" xmlns="http://www.w3.org/2000/svg"><path fill-rule="evenodd" clip-rule="evenodd" d="M0 15.5C0 6.94 6.94 0 15.5 0 24.06 0 31 6.94 31 15.5 31 24.06 24.06 31 15.5 31 6.94 31 0 24.06 0 15.5zm23.695 7.324c1.146-.128 2.098-.986 2.366-2.15.381-1.658.382-3.468.382-5.174v-.042c0-1.694 0-3.488-.378-5.132-.268-1.164-1.22-2.022-2.366-2.15-2.714-.304-5.46-.305-8.195-.304-2.736-.001-5.482 0-8.197.303-1.146.129-2.097.987-2.365 2.151-.381 1.658-.386 3.467-.386 5.174 0 1.706 0 3.516.382 5.174.267 1.164 1.219 2.022 2.365 2.15 2.714.303 5.461.305 8.196.303 2.736.002 5.482 0 8.196-.303zm-7.915-5.536c-1.034.535-2.067 1.071-3.104 1.61v-7.239l3.77 1.967 3.188 1.663-3.854 1.999z"/></symbol></svg>